<?xml version="1.0" standalone="no"?><!-- Generator: Gravit.io --><svg xmlns="http://www.w3.org/2000/svg" xmlns:xlink="http://www.w3.org/1999/xlink" style="isolation:isolate" viewBox="0 0 24 24" width="24" height="24"><defs><clipPath id="_clipPath_RNoOR7mtkZ2O4aFLC6p9OJzQ961ZbwKl"><rect width="24" height="24"/></clipPath></defs><g clip-path="url(#_clipPath_RNoOR7mtkZ2O4aFLC6p9OJzQ961ZbwKl)"><path d=" M 16.259 19.452 C 16.259 20.627 17.139 21.581 18.224 21.581 C 19.309 21.581 20.19 20.627 20.19 19.452 C 20.19 18.277 19.309 17.323 18.224 17.323 C 17.139 17.323 16.259 18.277 16.259 19.452 L 16.259 19.452 Z  M 15.098 18.388 L 8.603 14.147 C 8.034 15.197 6.981 15.903 5.776 15.903 C 3.968 15.903 2.5 14.313 2.5 12.355 C 2.5 10.396 3.968 8.806 5.776 8.806 C 6.809 8.806 7.731 9.325 8.331 10.136 L 8.331 10.136 L 15.016 5.271 C 14.972 5.037 14.948 4.796 14.948 4.548 L 14.948 4.548 C 14.948 2.59 16.416 1 18.224 1 C 20.032 1 21.5 2.59 21.5 4.548 C 21.5 6.507 20.032 8.097 18.224 8.097 C 17.357 8.097 16.567 7.731 15.981 7.133 L 9.213 12.059 L 16.227 16.639 C 16.78 16.178 17.473 15.903 18.224 15.903 C 20.032 15.903 21.5 17.493 21.5 19.452 C 21.5 21.41 20.032 23 18.224 23 C 16.416 23 14.948 21.41 14.948 19.452 L 14.948 19.452 C 14.948 19.081 15.001 18.724 15.098 18.388 Z  M 3.81 12.355 C 3.81 11.18 4.691 10.226 5.776 10.226 C 6.861 10.226 7.741 11.18 7.741 12.355 C 7.741 13.53 6.861 14.484 5.776 14.484 C 4.691 14.484 3.81 13.53 3.81 12.355 L 3.81 12.355 Z  M 16.259 4.548 C 16.259 3.373 17.139 2.419 18.224 2.419 C 19.309 2.419 20.19 3.373 20.19 4.548 C 20.19 5.723 19.309 6.677 18.224 6.677 C 17.139 6.677 16.259 5.723 16.259 4.548 L 16.259 4.548 Z " fill-rule="evenodd" fill="rgb(46,46,46)"/></g></svg>