<?xml version="1.0" standalone="no"?><!-- Generator: Gravit.io --><svg xmlns="http://www.w3.org/2000/svg" xmlns:xlink="http://www.w3.org/1999/xlink" style="isolation:isolate" viewBox="0 0 24 24" width="24" height="24"><defs><clipPath id="_clipPath_ePWA8qakt8Cj1h1BY02cKUHaIxzX06bR"><rect width="24" height="24"/></clipPath></defs><g clip-path="url(#_clipPath_ePWA8qakt8Cj1h1BY02cKUHaIxzX06bR)"><path d=" M 7.741 4.548 C 7.741 3.373 6.861 2.419 5.776 2.419 C 4.691 2.419 3.81 3.373 3.81 4.548 C 3.81 5.723 4.691 6.677 5.776 6.677 C 6.861 6.677 7.741 5.723 7.741 4.548 L 7.741 4.548 Z  M 8.902 5.612 L 15.397 9.853 C 15.966 8.803 17.019 8.097 18.224 8.097 C 20.032 8.097 21.5 9.687 21.5 11.645 C 21.5 13.604 20.032 15.194 18.224 15.194 C 17.191 15.194 16.269 14.675 15.669 13.864 L 15.669 13.864 L 8.984 18.729 C 9.028 18.963 9.052 19.204 9.052 19.452 L 9.052 19.452 C 9.052 21.41 7.584 23 5.776 23 C 3.968 23 2.5 21.41 2.5 19.452 C 2.5 17.493 3.968 15.903 5.776 15.903 C 6.643 15.903 7.433 16.269 8.019 16.867 L 14.787 11.941 L 7.773 7.361 C 7.22 7.822 6.527 8.097 5.776 8.097 C 3.968 8.097 2.5 6.507 2.5 4.548 C 2.5 2.59 3.968 1 5.776 1 C 7.584 1 9.052 2.59 9.052 4.548 L 9.052 4.548 C 9.052 4.919 8.999 5.276 8.902 5.612 Z  M 20.19 11.645 C 20.19 12.82 19.309 13.774 18.224 13.774 C 17.139 13.774 16.259 12.82 16.259 11.645 C 16.259 10.47 17.139 9.516 18.224 9.516 C 19.309 9.516 20.19 10.47 20.19 11.645 L 20.19 11.645 Z  M 7.741 19.452 C 7.741 20.627 6.861 21.581 5.776 21.581 C 4.691 21.581 3.81 20.627 3.81 19.452 C 3.81 18.277 4.691 17.323 5.776 17.323 C 6.861 17.323 7.741 18.277 7.741 19.452 L 7.741 19.452 Z " fill-rule="evenodd" fill="rgb(46,46,46)"/></g></svg>